<svg
 xmlns="http://www.w3.org/2000/svg"
 xmlns:xlink="http://www.w3.org/1999/xlink"
 width="451px" height="112px" viewBox="0 0 451 112">
<path fill-rule="evenodd"  opacity="0.8" fill="rgb(227, 231, 238)"
 d="M450.501,27.109 L450.542,27.356 C450.569,27.521 450.208,28.87 449.458,29.56 C447.706,31.306 446.101,31.995 444.641,31.121 C443.700,30.535 443.92,29.411 442.817,27.750 C442.542,26.90 442.593,24.62 442.972,21.668 C443.37,21.252 443.73,21.10 443.79,20.941 C443.84,20.873 443.30,20.797 442.915,20.714 C442.750,20.742 442.490,21.5 442.135,21.503 C440.887,22.926 439.688,24.746 438.538,26.964 C437.389,29.182 436.861,30.579 436.957,31.154 C437.52,31.730 436.872,32.165 436.415,32.460 C435.958,32.756 435.459,32.796 434.917,32.582 C434.376,32.368 433.989,32.18 433.757,31.533 C433.525,31.48 433.321,29.925 433.147,28.162 C432.973,26.401 432.915,24.628 432.974,22.844 C433.32,21.61 433.289,18.493 433.745,15.140 C434.645,10.194 435.130,7.630 435.201,7.449 C435.392,7.181 435.611,6.410 435.855,5.136 C436.99,3.863 436.190,3.37 436.127,2.659 C436.64,2.281 436.170,1.900 436.443,1.516 L436.854,0.942 C437.149,0.893 437.514,0.959 437.949,1.140 C438.384,1.321 438.678,1.569 438.831,1.881 C439.278,2.550 439.474,3.269 439.416,4.39 C439.358,4.809 439.7,6.202 438.364,8.217 C437.720,10.233 437.249,12.169 436.950,14.26 C436.650,15.883 436.365,17.974 436.93,20.300 C435.821,22.626 435.715,23.970 435.775,24.331 C435.835,24.693 436.2,24.784 436.275,24.603 C436.549,24.423 436.762,24.185 436.916,23.889 C437.3,23.604 437.520,22.859 438.467,21.655 C440.892,18.584 442.342,17.9 442.819,16.930 C443.294,16.851 443.745,16.928 444.172,17.161 C444.598,17.395 444.910,17.698 445.107,18.71 C445.183,18.126 445.294,18.234 445.439,18.396 C445.584,18.558 445.675,18.652 445.714,18.679 C446.211,19.37 446.191,20.949 445.653,24.416 C445.433,27.156 445.424,28.627 445.626,28.830 C445.664,28.857 445.716,28.865 445.782,28.854 C446.291,28.466 446.781,28.64 447.252,27.648 C448.658,26.368 449.697,25.823 450.370,26.16 C450.545,26.55 450.647,26.156 450.674,26.320 L450.501,27.109 ZM426.958,33.699 C424.725,35.691 422.421,36.647 420.48,36.568 C419.506,36.556 418.915,36.292 418.272,35.773 C417.630,35.254 417.182,34.746 416.931,34.247 L416.620,33.893 C416.396,33.761 416.189,32.925 416.2,31.386 C415.813,29.845 415.748,28.742 415.807,28.73 C415.864,27.405 416.11,26.460 416.247,25.238 C416.482,24.17 416.620,23.217 416.659,22.839 L417.513,19.757 L415.454,19.542 C415.219,19.547 415.11,19.463 414.831,19.290 C414.650,19.117 414.542,18.925 414.507,18.710 C414.471,18.497 414.562,18.178 414.778,17.753 C414.994,17.329 415.210,17.107 415.427,17.88 C415.643,17.70 416.135,16.988 416.904,16.843 C417.672,16.699 418.179,16.556 418.426,16.413 C418.672,16.272 418.823,16.61 418.878,15.781 C419.37,14.911 419.299,13.955 419.667,12.914 C420.335,10.844 420.924,9.512 421.433,8.921 C421.942,8.330 422.664,8.312 423.599,8.866 C423.927,9.217 424.108,9.449 424.144,9.561 C424.179,9.674 424.120,9.979 423.967,10.477 C423.814,10.976 423.577,11.632 423.257,12.445 C422.936,13.259 422.721,13.844 422.612,14.199 C422.184,15.81 422.173,15.522 422.578,15.522 C422.983,15.523 423.944,15.271 425.462,14.765 C426.980,14.260 427.917,14.570 428.272,15.693 C428.501,16.466 428.498,16.957 428.263,17.164 C428.27,17.373 427.286,17.579 426.39,17.786 C425.16,18.125 424.38,18.380 423.106,18.552 C422.173,18.724 421.614,18.858 421.428,18.957 C421.50,19.121 420.790,19.485 420.648,20.49 C420.560,20.131 420.475,20.331 420.393,20.648 C420.261,21.76 419.979,21.917 419.546,23.171 C419.96,25.948 418.880,28.256 418.899,30.94 C418.917,31.933 419.33,32.995 419.250,33.279 C419.465,33.565 420.74,33.675 421.75,33.610 C422.782,33.530 424.508,32.754 426.254,31.282 L427.452,30.272 C427.693,29.692 428.64,29.799 428.568,30.594 C428.628,30.956 428.649,31.239 428.633,31.445 C428.616,31.650 428.482,31.960 428.230,32.373 C427.978,32.787 427.554,33.229 426.958,33.699 ZM414.138,10.688 C413.897,11.674 413.711,12.288 413.583,12.529 C413.454,12.770 413.28,14.167 412.305,16.719 C411.132,20.630 410.579,22.783 410.644,23.177 C410.413,24.26 410.287,24.487 410.266,24.557 L409.829,28.634 C409.538,30.135 409.390,30.970 409.385,31.140 C409.99,32.674 409.74,34.756 409.307,37.386 L409.291,37.591 C409.307,38.298 409.219,38.786 409.28,39.54 C408.836,39.322 408.499,39.428 408.18,39.373 C407.154,39.246 406.602,38.562 406.362,37.317 C406.354,32.386 406.591,28.630 407.74,26.50 C407.199,25.388 407.303,24.795 407.386,24.275 C407.967,20.868 408.541,18.628 409.105,17.554 L409.277,16.765 C409.244,16.365 409.310,15.949 409.475,15.516 C409.771,14.859 409.971,14.235 410.75,13.643 C410.414,12.438 410.732,11.506 411.28,10.849 C411.225,10.6 411.515,9.316 411.899,8.779 L411.842,8.738 C412.5,8.305 412.375,8.41 412.950,7.946 C413.523,7.851 413.862,7.854 413.963,7.956 C414.64,8.58 414.171,8.445 414.282,9.119 C414.394,9.793 414.330,10.319 414.89,10.697 L414.138,10.688 ZM404.976,36.280 C404.839,36.472 404.630,36.742 404.352,37.93 C403.821,37.553 403.104,37.857 402.202,38.7 C401.299,38.156 400.581,38.98 400.48,37.832 C399.515,37.566 398.983,37.156 398.453,36.601 C397.922,36.48 397.550,35.535 397.338,35.63 L397.10,34.611 L395.737,35.785 C395.491,36.130 395.156,36.548 394.732,37.41 C394.308,37.534 394.37,37.883 393.919,38.88 C393.801,38.294 393.644,38.412 393.447,38.445 L392.955,38.526 C392.993,38.757 392.715,39.65 392.121,39.450 C391.528,39.836 390.985,40.69 390.492,40.151 C389.923,40.381 389.253,40.306 388.482,39.927 C387.711,39.548 387.210,39.73 386.982,38.503 C386.572,37.457 386.657,35.838 387.239,33.646 C387.819,31.456 388.677,29.354 389.810,27.341 C390.943,25.329 392.63,23.995 393.168,23.338 C393.830,22.857 394.242,22.603 394.407,22.575 C394.571,22.548 395.44,22.656 395.826,22.898 C396.308,22.953 396.677,23.44 396.934,23.170 C397.924,23.648 398.760,24.928 399.443,27.11 C399.956,28.75 400.76,28.799 399.802,29.181 C399.671,29.406 399.600,29.536 399.589,29.571 C399.577,29.607 399.610,29.653 399.687,29.707 C399.715,29.872 399.670,30.115 399.556,30.439 C399.254,32.280 399.318,33.688 399.750,34.663 C400.138,35.376 400.677,35.726 401.366,35.713 C402.55,35.700 402.720,35.285 403.360,34.470 C404.258,33.578 404.731,33.280 404.780,33.575 C404.972,33.713 405.141,33.769 405.289,33.745 C405.437,33.720 405.554,33.769 405.642,33.889 C405.816,34.131 405.786,34.558 405.551,35.171 C405.140,35.746 404.949,36.116 404.976,36.280 ZM396.268,25.561 C396.77,25.221 395.880,25.51 395.678,25.51 C394.529,25.39 392.980,27.86 391.30,31.193 C389.656,34.91 389.56,36.65 389.230,37.117 L389.558,37.569 C389.919,37.510 390.753,36.839 392.58,35.558 C393.363,34.278 394.172,33.358 394.484,32.800 L395.666,31.83 C396.279,30.104 396.639,29.72 396.747,27.990 C396.853,26.908 396.694,26.99 396.268,25.561 ZM374.70,41.328 C374.422,41.726 374.984,41.861 375.756,41.733 C376.526,41.605 377.144,41.410 377.606,41.148 C378.69,40.886 378.702,40.332 379.507,39.489 L381.17,38.226 C381.148,38.204 381.266,38.100 381.370,37.914 C381.644,37.734 381.996,37.726 382.428,37.890 C382.860,38.55 383.106,38.319 383.166,38.680 C383.144,38.955 382.919,39.430 382.493,40.109 C382.65,40.788 381.723,41.167 381.466,41.242 C381.45,41.549 380.820,41.722 380.793,41.759 L380.843,41.751 C380.613,42.195 380.350,42.441 380.55,42.490 L379.661,42.555 C379.573,42.841 379.182,43.176 378.487,43.561 C377.792,43.946 377.116,44.193 376.460,44.302 C375.15,44.542 373.735,44.189 372.617,43.242 C371.499,42.296 370.835,40.995 370.629,39.340 C370.324,36.891 370.697,34.159 371.749,31.147 C373.201,26.886 375.207,24.543 377.767,24.118 C378.390,24.15 379.126,24.79 379.974,24.310 C381.62,24.569 381.882,25.244 382.434,26.334 C382.723,27.267 382.830,28.111 382.753,28.866 C382.363,31.397 381.306,33.363 379.583,34.764 C379.112,35.180 378.483,35.453 377.695,35.584 C376.152,35.840 374.955,35.531 374.102,34.659 L373.692,34.322 C373.253,36.557 373.118,38.184 373.287,39.203 C373.456,40.223 373.717,40.931 374.70,41.328 ZM374.977,31.701 C375.237,31.642 375.373,31.644 375.384,31.710 C375.460,32.171 375.637,32.530 375.916,32.787 C376.195,33.45 376.515,33.144 376.876,33.84 C377.861,32.921 378.632,32.286 379.191,31.180 C379.749,30.74 380.29,29.64 380.29,28.152 C380.30,27.240 379.828,26.683 379.423,26.479 C378.570,26.215 377.527,26.844 376.296,28.366 C375.546,29.335 375.9,30.168 374.687,30.863 L374.218,32.4 C374.464,31.863 374.717,31.762 374.977,31.701 ZM367.686,19.303 C367.477,20.588 367.329,21.373 367.242,21.657 C367.356,22.348 367.317,22.828 367.126,23.95 C366.934,23.364 366.741,23.928 366.547,24.788 C366.352,25.649 366.289,26.284 366.357,26.694 C366.425,27.106 366.322,27.503 366.49,27.886 C365.422,33.260 364.950,36.718 364.632,38.257 L364.80,42.858 C363.902,46.469 363.822,48.324 363.839,48.422 C363.701,48.614 363.177,48.600 362.263,48.379 C361.546,48.126 361.106,47.803 360.939,47.408 C360.772,47.13 360.758,46.577 360.899,46.97 C361.38,45.618 361.267,43.697 361.587,40.332 C361.795,39.150 361.996,37.511 362.188,35.418 C362.380,33.326 362.504,32.241 362.559,32.164 L362.478,31.671 C362.450,31.507 361.100,31.655 358.428,32.114 C355.755,32.575 353.536,33.69 351.769,33.598 L348.175,34.195 C348.71,34.584 347.823,36.187 347.430,39.6 C347.38,41.825 346.798,44.398 346.712,46.727 C346.626,49.56 346.421,51.277 346.97,53.391 C345.742,53.281 345.383,53.256 345.23,53.316 C344.508,53.266 344.91,53.40 343.772,52.637 C343.452,52.234 343.314,51.758 343.358,51.210 C343.577,50.903 343.605,50.257 343.441,49.271 C343.551,48.915 343.623,48.185 343.660,47.81 C343.696,45.977 343.906,43.637 344.291,40.58 C344.676,36.481 344.964,34.558 345.156,34.290 L345.66,33.747 C344.984,33.254 345.80,32.715 345.354,32.128 C345.518,31.87 345.571,30.387 345.511,30.25 L347.213,22.597 L347.172,22.350 C347.227,22.274 347.491,21.326 347.966,19.507 C348.439,17.689 348.761,16.479 348.932,15.876 C349.101,15.273 349.231,14.838 349.322,14.569 C349.412,14.301 349.493,14.77 349.564,13.895 C349.636,13.715 349.663,13.575 349.647,13.477 C349.849,13.72 350.219,12.918 350.759,13.14 C351.297,13.110 351.741,13.400 352.91,13.882 L352.715,14.589 L351.531,18.434 C350.671,20.774 350.277,22.157 350.347,22.584 C349.908,24.616 349.623,26.99 349.492,27.33 C349.360,27.967 349.212,28.752 349.47,29.387 C348.718,30.658 348.562,31.343 348.579,31.442 C348.562,31.343 349.454,31.128 351.254,30.795 C356.959,29.816 360.116,29.224 360.723,29.22 L363.242,28.351 L365.128,15.927 C365.386,14.431 365.628,13.454 365.855,12.993 C366.83,12.533 366.344,12.279 366.639,12.230 C366.935,12.181 367.250,12.205 367.587,12.301 C367.923,12.397 368.160,12.553 368.297,12.766 C369.166,13.331 369.252,14.365 368.557,15.865 C368.185,16.873 367.894,18.19 367.686,19.303 ZM326.277,33.619 C326.271,33.790 326.206,34.366 326.83,35.349 C325.959,36.333 325.883,37.300 325.856,38.250 C325.828,39.201 325.716,39.692 325.519,39.725 C325.32,40.448 324.795,42.481 324.810,45.823 C324.809,46.634 324.948,47.878 325.226,49.554 C325.504,51.231 325.496,52.94 325.200,52.143 C324.642,52.236 324.145,52.82 323.707,51.682 C323.269,51.281 322.952,50.895 322.756,50.521 C322.559,50.149 322.448,49.576 322.421,48.804 L322.241,46.502 C322.143,46.518 322.76,46.522 322.40,46.510 C322.5,46.499 321.906,46.566 321.745,46.711 C321.583,46.857 321.462,46.986 321.380,47.101 C321.298,47.216 321.150,47.393 320.936,47.631 C320.723,47.869 320.531,48.87 320.362,48.283 C318.13,52.18 315.832,53.917 313.819,53.980 C312.178,54.49 311.277,52.679 311.114,49.867 C311.11,47.621 311.461,45.350 312.463,43.56 C312.857,41.977 313.512,40.889 314.426,39.791 C315.339,38.694 316.292,37.877 317.282,37.341 C318.787,36.450 320.247,36.106 321.664,36.310 C322.555,36.602 323.54,36.452 323.158,35.860 C323.229,35.679 323.326,35.249 323.450,34.570 C323.573,33.891 323.692,33.389 323.807,33.66 C324.235,30.360 324.653,28.205 325.62,26.599 C325.470,24.995 325.784,23.735 326.4,22.820 C326.354,21.681 326.702,20.981 327.47,20.721 C327.391,20.461 327.834,20.540 328.376,20.957 C328.791,21.429 329.4,21.900 329.15,22.371 C329.25,22.843 328.872,23.746 328.554,25.82 C327.979,26.495 327.219,29.342 326.277,33.619 ZM321.138,38.931 C319.190,38.984 317.414,40.377 315.811,43.109 C315.153,44.231 314.644,45.430 314.283,46.707 C313.521,49.232 313.492,50.588 314.199,50.775 C315.117,50.623 316.469,49.419 318.254,47.163 C318.998,46.162 319.843,44.653 320.791,42.637 C321.738,40.623 322.188,39.466 322.139,39.170 C322.106,38.973 321.772,38.894 321.138,38.931 ZM304.565,51.865 C304.254,51.208 303.990,50.433 303.775,49.539 C303.559,48.646 303.492,48.90 303.575,47.874 C303.657,47.658 303.617,47.116 303.457,46.247 C303.295,45.379 303.66,44.910 302.768,44.841 C302.470,44.772 302.85,44.946 301.615,45.361 C298.146,48.437 295.721,50.798 294.342,52.446 C293.991,52.977 293.603,53.785 293.176,54.869 C293.104,55.50 292.986,55.154 292.823,55.181 C292.521,55.401 292.15,55.298 291.305,54.875 C290.452,54.206 290.0,53.825 289.952,53.731 C289.908,53.469 289.914,52.843 289.969,51.853 C290.24,50.865 290.96,50.228 290.183,49.943 C290.314,49.921 290.443,49.680 290.569,49.220 C290.696,48.760 290.808,48.420 290.906,48.201 C290.923,47.691 291.161,46.487 291.622,44.586 C292.164,43.178 292.389,41.790 292.297,40.420 C292.242,40.294 292.255,40.165 292.334,40.33 C292.414,39.902 292.519,39.825 292.650,39.804 C293.148,39.147 293.788,39.193 294.570,39.941 C295.352,40.690 295.755,41.493 295.779,42.351 C295.803,43.208 295.467,44.489 294.772,46.192 C294.497,47.386 294.372,48.49 294.393,48.180 C295.559,47.75 296.374,46.298 296.840,45.849 C297.53,45.509 297.671,44.867 298.695,43.920 C299.718,42.973 300.451,42.412 300.895,42.237 C301.623,41.745 302.134,41.474 302.430,41.425 C302.725,41.376 303.258,41.592 304.29,42.72 C304.800,42.553 305.284,42.979 305.481,43.352 C305.541,43.714 305.662,44.91 305.845,44.482 C306.28,44.875 306.201,45.665 306.365,46.854 C306.528,48.43 306.506,48.723 306.298,48.892 C306.326,49.57 306.421,49.125 306.585,49.98 L306.626,49.345 C306.265,49.405 306.291,49.713 306.704,50.269 C307.116,50.827 307.495,51.228 307.839,51.475 C308.184,51.722 308.352,52.23 308.344,52.379 C308.335,52.736 308.79,53.23 307.576,53.242 C306.296,53.454 305.292,52.996 304.565,51.865 ZM281.0,53.442 C280.437,52.894 280.22,52.219 279.754,51.419 C279.377,52.191 278.955,52.903 278.490,53.554 C274.636,58.991 271.492,61.185 269.59,60.135 C268.928,59.954 268.738,59.775 268.489,59.596 C268.240,59.418 268.98,59.222 268.63,59.8 C268.27,58.795 267.911,58.602 267.714,58.432 C267.63,57.966 267.549,55.402 269.171,50.741 C269.335,50.511 269.531,50.124 269.762,49.579 C269.992,49.34 270.151,48.721 270.238,48.638 C270.217,48.507 270.245,48.376 270.325,48.244 C270.404,48.113 270.509,48.36 270.641,48.14 L270.592,47.718 C270.543,47.422 270.964,46.609 271.856,45.279 C274.243,41.775 276.328,40.517 278.111,41.505 C278.351,41.736 279.920,42.759 282.818,44.576 L282.341,47.189 C281.973,49.446 282.519,51.416 283.979,53.100 C284.203,53.435 284.589,53.726 285.135,53.972 C285.682,54.220 286.207,54.336 286.711,54.319 C287.454,54.332 287.878,54.650 287.982,55.274 C288.85,55.899 287.853,56.327 287.284,56.555 C285.133,57.216 283.39,56.178 281.0,53.442 ZM277.34,44.167 C276.312,44.287 275.356,45.332 274.165,47.303 C272.974,49.274 271.965,51.528 271.138,54.64 L270.373,57.79 C270.433,57.441 270.848,57.347 271.617,56.797 C272.385,56.247 273.10,55.697 273.492,55.143 C275.911,52.242 277.594,49.784 278.542,47.768 L279.331,45.813 C278.522,44.596 277.756,44.47 277.34,44.167 ZM252.293,51.918 C252.358,52.8 252.108,53.199 251.544,55.488 C251.160,58.255 250.628,60.539 249.949,62.341 C249.696,63.59 248.556,67.572 246.528,75.882 C246.566,76.517 246.494,77.2 246.314,77.336 L245.633,77.500 C245.611,77.571 245.469,77.527 245.207,77.368 C244.353,76.901 243.929,76.482 243.935,76.109 C243.542,75.363 243.709,73.731 244.439,71.211 C244.608,70.811 244.811,70.102 245.47,69.83 C245.283,68.64 245.480,67.321 245.639,66.857 C247.266,62.228 248.271,59.38 248.655,57.285 C248.200,58.2 247.542,59.66 246.680,60.476 C245.818,61.886 245.171,62.813 244.738,63.256 C244.306,63.700 243.906,63.935 243.540,63.961 C242.178,63.883 241.316,63.468 240.956,62.717 C240.426,61.353 240.157,58.712 240.148,54.793 C240.225,53.24 240.202,51.870 240.80,51.333 C239.957,50.796 239.669,50.380 239.215,50.83 C238.198,49.441 238.95,48.817 238.904,48.209 C239.561,47.897 240.42,47.750 240.349,47.767 C240.655,47.784 240.946,47.913 241.222,48.154 C241.498,48.396 241.761,48.656 242.9,48.936 C242.258,49.216 242.426,49.416 242.514,49.536 C242.820,50.162 243.25,50.786 243.128,51.411 L243.257,56.153 C243.9,59.133 243.93,60.657 243.509,60.723 C244.729,59.338 246.355,56.636 248.387,52.616 C249.27,50.787 249.436,49.486 249.611,48.714 C249.787,47.942 250.20,47.515 250.310,47.433 C250.496,47.334 250.818,47.348 251.278,47.475 C251.736,47.601 251.980,47.696 252.8,47.759 C252.35,47.823 252.200,47.854 252.504,47.854 C252.808,47.854 252.966,47.896 252.980,47.978 C252.994,48.60 252.866,48.715 252.597,49.942 C252.328,51.169 252.227,51.827 252.293,51.918 ZM232.605,51.407 C230.256,51.881 229.75,52.187 229.65,52.324 C228.774,52.609 228.478,54.279 228.176,57.336 C228.82,59.210 228.141,60.889 228.354,62.374 C228.566,63.860 228.932,64.847 229.452,65.335 C229.796,65.581 230.373,65.554 231.183,65.250 C231.993,64.947 232.701,64.441 233.309,63.732 C233.916,63.23 234.451,62.791 234.913,63.35 C235.375,63.280 235.354,63.917 234.851,64.946 C234.412,65.965 233.733,66.804 232.814,67.463 C231.895,68.122 231.32,68.408 230.225,68.323 C229.418,68.237 228.544,67.901 227.604,67.313 C226.883,66.622 226.375,65.954 226.84,65.310 C225.791,64.666 225.563,63.851 225.400,62.864 C225.236,61.878 225.174,60.791 225.213,59.601 C225.340,56.709 225.481,54.810 225.634,53.906 C225.673,53.528 225.477,53.316 225.48,53.268 C224.618,53.222 224.126,53.253 223.571,53.361 C223.15,53.471 222.684,53.500 222.574,53.450 L222.328,53.187 C222.301,53.23 222.214,52.860 222.70,52.698 C221.925,52.537 221.922,52.317 222.62,52.41 C222.201,51.764 222.367,51.593 222.559,51.527 C222.750,51.462 223.78,51.357 223.543,51.212 C224.8,51.68 224.383,50.938 224.668,50.823 C225.620,50.462 226.249,49.986 226.556,49.395 C226.802,48.239 227.140,46.925 227.571,45.451 C228.1,43.978 228.309,43.91 228.495,42.789 C229.4,42.401 229.394,42.209 229.665,42.215 C229.935,42.221 230.279,42.460 230.694,42.931 C231.110,43.201 231.287,43.560 231.227,44.9 C231.221,44.382 230.703,46.140 229.673,49.283 C230.78,49.284 230.603,49.197 231.249,49.22 C232.266,48.651 233.160,48.452 233.932,48.425 C235.343,48.191 236.199,48.675 236.499,49.875 C236.625,50.226 236.595,50.450 236.409,50.548 C236.223,50.647 234.955,50.934 232.605,51.407 ZM218.284,59.458 C218.23,60.228 217.787,61.35 217.573,61.881 C217.359,62.728 216.848,63.869 216.41,65.303 C215.233,66.738 214.433,67.707 213.639,68.210 C212.846,68.916 212.73,69.340 211.321,69.481 C210.568,69.623 209.736,69.584 208.823,69.363 C208.62,68.848 207.477,68.320 207.68,67.779 C206.657,67.239 206.279,66.381 205.933,65.205 C205.586,64.30 205.636,62.147 206.83,59.555 C206.530,56.964 207.123,55.151 207.862,54.116 C208.175,53.558 208.450,53.233 208.688,53.143 C208.926,53.53 209.397,53.102 210.103,53.289 C210.961,53.991 211.114,55.14 210.561,56.355 C209.488,58.425 208.983,60.874 209.47,63.701 C208.871,64.879 208.841,65.661 208.956,66.47 C209.70,66.434 209.417,66.647 209.997,66.685 C210.987,66.758 212.54,65.973 213.198,64.330 C214.748,62.80 215.591,59.643 215.729,57.18 C215.829,55.177 216.136,54.29 216.650,53.571 C217.164,53.115 217.632,53.37 218.53,53.339 C218.371,53.421 218.576,53.548 218.673,53.717 C218.768,53.888 218.860,54.345 218.951,55.90 C219.40,55.836 219.17,56.558 218.880,57.256 C218.743,57.955 218.544,58.689 218.284,59.458 ZM199.599,71.399 C198.615,71.563 197.371,69.962 195.869,66.595 C193.613,69.673 192.461,71.266 192.412,71.375 C192.154,72.60 191.350,72.802 189.999,73.600 C189.593,73.802 189.54,73.908 188.382,73.918 C187.709,73.928 187.361,73.860 187.336,73.712 C187.311,73.564 187.289,73.483 187.270,73.469 C187.251,73.456 187.176,73.460 187.45,73.481 C186.810,73.284 186.482,73.136 186.61,73.36 C185.694,72.658 185.465,72.190 185.372,71.630 C185.279,71.71 185.283,70.175 185.382,68.943 C185.278,67.305 185.910,65.63 187.276,62.217 C188.643,59.373 189.991,57.384 191.320,56.251 C192.114,55.140 193.279,54.845 194.816,55.367 C195.931,55.791 196.997,56.729 198.15,58.182 C198.315,58.977 198.522,60.226 198.636,61.930 C198.466,63.344 198.512,64.840 198.773,66.418 C198.811,67.54 198.958,67.485 199.216,67.713 C199.472,67.941 199.833,67.881 200.299,67.533 C200.764,67.186 201.249,67.64 201.755,67.165 C202.261,67.267 202.562,67.606 202.657,68.181 C202.753,68.757 202.447,69.407 201.741,70.132 C201.35,70.857 200.321,71.280 199.599,71.399 ZM194.901,58.622 C194.537,58.260 194.237,58.82 194.2,58.87 C192.985,58.256 191.679,59.942 190.86,63.145 L188.862,65.832 C188.709,66.128 188.480,66.883 188.176,68.99 C187.872,69.315 187.739,70.39 187.777,70.269 C187.968,71.420 188.597,71.552 189.664,70.665 C190.375,70.74 191.209,69.109 192.168,67.767 C193.125,66.426 193.948,65.82 194.635,63.734 C195.323,62.387 195.688,61.34 195.733,59.675 C195.541,59.336 195.264,58.985 194.901,58.622 ZM177.769,67.266 C176.23,68.130 174.510,68.262 173.231,67.663 C172.602,67.531 172.208,67.648 172.49,68.11 C171.890,68.376 171.838,69.229 171.892,70.571 C172.5,72.884 172.754,74.44 174.138,74.50 C174.275,74.62 174.478,74.70 174.750,74.76 C175.20,74.81 175.198,74.86 175.283,74.88 C175.367,74.92 175.510,74.85 175.710,74.69 C175.909,74.53 176.72,74.17 176.198,73.962 C176.449,73.853 176.686,73.704 176.908,73.515 C177.129,73.326 177.300,73.189 177.421,73.101 C177.661,72.926 177.819,72.806 177.893,72.744 C177.966,72.681 178.11,72.648 178.28,72.645 C178.44,72.643 178.75,72.621 178.119,72.580 C178.162,72.539 178.182,72.502 178.176,72.469 C178.373,72.233 178.615,71.914 178.903,71.512 C179.190,71.109 179.415,70.895 179.580,70.868 C179.744,70.840 179.930,70.894 180.138,71.28 C180.345,71.164 180.484,71.242 180.556,71.263 C181.81,71.176 181.78,71.616 180.547,72.582 C180.16,73.549 179.310,74.427 178.429,75.214 C177.531,76.309 176.348,76.851 174.879,76.842 C173.411,76.832 172.151,76.306 171.102,75.263 C169.872,74.150 169.153,72.158 168.947,69.286 C168.773,67.423 169.248,65.410 170.374,63.247 C171.499,61.83 172.814,59.557 174.319,58.665 C174.729,58.293 175.130,58.66 175.521,57.984 C175.912,57.903 176.587,57.850 177.544,57.826 C178.501,57.803 179.297,58.76 179.931,58.647 C180.887,59.333 181.456,60.218 181.636,61.303 C181.635,62.114 181.277,63.103 180.560,64.269 C179.843,65.435 178.912,66.435 177.769,67.266 ZM178.744,61.555 C178.670,61.111 178.380,60.787 177.875,60.584 C177.368,60.381 176.817,60.413 176.221,60.681 C175.625,60.949 175.47,61.433 174.489,62.134 C173.930,62.834 173.486,63.508 173.155,64.154 C172.823,64.800 172.716,65.164 172.830,65.246 C173.5,65.489 173.555,65.549 174.479,65.429 C175.403,65.310 176.125,65.89 176.646,64.766 C177.165,64.444 177.663,63.938 178.140,63.251 C178.616,62.564 178.817,61.999 178.744,61.555 ZM164.62,75.518 C164.51,75.656 163.839,76.206 163.425,77.170 C163.11,78.134 162.635,78.915 162.296,79.511 C159.822,82.488 157.61,84.247 154.15,84.786 C152.341,85.64 151.58,85.6 150.167,84.613 C149.275,84.221 148.569,83.882 148.50,83.596 C147.530,83.310 147.126,83.6 146.836,82.682 C146.256,82.36 146.350,81.378 147.116,80.710 C147.411,80.459 148.172,80.772 149.397,81.650 C150.911,82.648 152.861,82.612 155.247,81.541 C157.616,80.372 159.542,78.465 161.26,75.819 C161.771,74.412 162.94,72.855 161.997,71.148 C161.899,69.441 161.547,68.385 160.940,67.978 C158.682,65.752 155.701,65.469 151.997,67.130 C151.357,67.337 150.438,67.693 149.240,68.195 C148.802,68.403 148.528,68.736 148.419,69.193 C148.309,69.651 147.901,71.864 147.193,75.833 C146.485,79.801 145.904,81.942 145.450,82.254 C145.143,82.440 144.627,82.171 143.900,81.446 C143.112,80.563 142.918,79.599 143.319,78.553 C143.510,78.82 143.655,77.331 143.755,76.301 C143.968,74.948 144.679,71.554 145.885,66.116 C147.91,60.680 148.2,56.762 148.615,54.362 C149.229,51.963 149.364,50.742 149.19,50.697 C149.3,50.599 148.929,50.459 148.798,50.278 C148.667,50.97 148.609,49.955 148.626,49.850 C148.593,49.653 149.4,49.281 149.857,48.734 C150.711,48.187 151.356,47.911 151.794,47.906 C152.417,47.803 152.716,47.669 152.689,47.504 C152.721,47.499 152.883,47.455 153.173,47.373 C153.950,47.177 154.669,47.41 155.331,46.965 C157.562,46.797 159.376,47.156 160.770,48.39 C162.164,48.923 162.995,50.272 163.262,52.86 C163.366,52.913 162.991,54.217 162.140,55.997 C161.289,57.777 160.304,59.367 159.188,60.768 C158.71,62.170 157.256,63.49 156.742,63.404 C156.779,63.432 157.442,63.559 158.727,63.784 C161.648,64.313 163.654,65.839 164.747,68.361 C165.315,69.753 165.273,71.737 164.621,74.311 L164.62,75.518 ZM157.520,58.334 C158.431,56.713 159.68,55.366 159.429,54.292 C159.960,53.22 160.217,52.76 160.198,51.454 C160.179,50.832 159.923,50.359 159.432,50.35 C158.962,49.640 158.56,49.520 156.716,49.674 C155.376,49.829 154.334,50.104 153.590,50.497 C152.747,50.907 152.375,51.408 152.473,52.0 C152.555,52.493 152.376,53.47 151.939,53.659 L151.643,54.621 C151.659,54.719 151.492,55.440 151.141,56.782 C149.837,61.728 149.239,64.530 149.348,65.187 C151.580,64.412 153.19,63.836 153.665,63.458 C154.436,62.823 155.44,62.216 155.487,61.635 C155.930,61.55 156.608,59.955 157.520,58.334 ZM125.977,71.597 C125.862,71.717 125.618,71.918 125.243,72.200 C124.868,72.482 124.615,72.684 124.484,72.807 C124.352,72.930 124.122,73.121 123.794,73.378 C123.465,73.635 123.222,73.845 123.64,74.6 C122.905,74.167 122.694,74.371 122.431,74.617 C122.169,74.863 121.944,75.87 121.758,75.286 C121.572,75.487 121.364,75.706 121.134,75.947 C120.258,76.972 119.503,78.313 118.868,79.972 C118.676,80.240 118.538,80.880 118.452,81.890 C118.367,82.902 118.343,83.522 118.382,83.752 C118.337,84.300 118.181,84.833 117.913,85.350 C117.645,85.868 117.379,86.148 117.117,86.192 C116.854,86.235 116.416,86.38 115.804,85.598 C115.432,85.390 115.178,85.179 115.42,84.965 C114.768,84.537 114.755,82.427 115.4,78.636 C114.966,77.798 115.254,75.977 115.868,73.171 C116.482,70.367 117.38,68.434 117.537,67.371 C118.111,66.769 118.762,66.729 119.490,67.250 C119.861,67.459 120.1,67.892 119.908,68.549 C119.786,69.448 119.470,70.843 118.958,72.735 C118.445,74.628 118.238,75.566 118.337,75.550 C118.435,75.533 118.572,75.443 118.747,75.279 C119.4,74.595 119.740,73.594 120.956,72.277 C122.171,70.961 122.943,70.183 123.275,69.941 C123.606,69.701 123.963,69.465 124.346,69.232 C124.729,69.0 124.950,68.862 125.11,68.818 C125.672,68.337 126.414,68.78 127.235,68.43 C128.55,68.9 128.605,68.221 128.884,68.682 C128.938,69.11 129.179,69.242 129.605,69.373 L129.900,69.628 C129.950,69.924 129.551,70.168 128.706,70.359 C127.861,70.549 126.951,70.963 125.977,71.597 ZM109.479,77.500 C109.218,78.270 108.981,79.77 108.768,79.924 C108.554,80.770 108.43,81.911 107.236,83.345 C106.428,84.780 105.627,85.749 104.834,86.252 C104.41,86.958 103.268,87.382 102.516,87.523 C101.763,87.665 100.931,87.626 100.17,87.405 C99.257,86.890 98.672,86.361 98.262,85.821 C97.852,85.281 97.474,84.424 97.127,83.247 C96.781,82.72 96.830,80.189 97.278,77.597 C97.725,75.7 98.318,73.193 99.57,72.158 C99.369,71.600 99.644,71.276 99.882,71.185 C100.120,71.95 100.592,71.144 101.298,71.331 C102.156,72.33 102.308,73.56 101.755,74.397 C100.682,76.467 100.178,78.915 100.242,81.743 C100.66,82.921 100.36,83.703 100.150,84.89 C100.265,84.476 100.612,84.689 101.192,84.727 C102.182,84.800 103.249,84.15 104.393,82.372 C105.942,80.122 106.786,77.685 106.924,75.60 C107.24,73.219 107.330,72.71 107.845,71.613 C108.359,71.157 108.827,71.79 109.248,71.381 C109.565,71.464 109.771,71.590 109.867,71.760 C109.963,71.930 110.55,72.387 110.146,73.132 C110.235,73.877 110.212,74.600 110.75,75.298 C109.938,75.997 109.738,76.731 109.479,77.500 ZM91.411,78.824 C91.397,78.945 91.442,79.115 91.546,79.333 C92.497,80.797 92.110,82.888 90.386,85.607 C88.661,88.326 86.689,90.4 84.468,90.643 C83.800,90.889 83.373,91.10 83.187,91.7 C83.1,91.4 82.698,90.852 82.277,90.550 C81.495,90.308 80.843,89.884 80.321,89.278 C79.798,88.672 79.526,88.100 79.505,87.563 C79.342,85.158 79.769,82.494 80.785,79.572 C81.801,76.650 82.990,74.822 84.353,74.90 C85.825,73.204 86.898,73.220 87.574,74.138 C88.248,75.58 88.246,75.708 87.569,76.91 C87.207,76.150 87.51,76.328 87.100,76.624 C87.346,76.685 88.14,76.541 89.103,76.191 C90.191,75.842 90.845,75.514 91.64,75.207 C91.305,75.32 91.707,74.965 92.270,75.7 C92.834,75.49 93.135,75.185 93.173,75.415 C93.233,75.777 93.427,75.930 93.755,75.875 C94.121,75.849 93.713,76.440 92.532,77.650 C91.798,78.312 91.424,78.703 91.411,78.824 ZM89.84,79.741 C89.68,79.643 88.938,79.572 88.695,79.527 C88.451,79.484 88.275,79.437 88.166,79.387 C87.739,79.458 87.60,79.233 86.131,78.711 L85.180,77.855 L84.482,78.832 C83.825,79.752 83.235,81.176 82.712,83.104 C82.188,85.33 81.954,86.364 82.8,87.97 C82.62,87.832 82.195,88.275 82.405,88.425 C82.615,88.577 82.862,88.637 83.144,88.607 C83.425,88.578 83.927,88.300 84.650,87.774 C85.5,87.277 85.306,86.956 85.553,86.814 C86.45,86.732 86.819,85.709 87.876,83.742 C89.53,81.892 89.456,80.559 89.84,79.741 ZM74.807,81.349 C74.873,81.439 74.623,82.630 74.59,84.919 C73.674,87.686 73.142,89.970 72.463,91.772 C72.211,92.490 71.71,97.2 69.43,105.312 C69.80,105.947 69.9,106.433 68.829,106.767 L68.148,106.930 C68.125,107.1 67.983,106.958 67.721,106.799 C66.868,106.332 66.444,105.912 66.450,105.540 C66.56,104.794 66.224,103.161 66.953,100.642 C67.122,100.242 67.326,99.532 67.561,98.514 C67.797,97.494 67.994,96.752 68.153,96.287 C69.780,91.659 70.785,88.469 71.170,86.716 C70.715,87.433 70.56,88.497 69.195,89.906 C68.332,91.316 67.685,92.243 67.253,92.686 C66.820,93.130 66.421,93.365 66.55,93.392 C64.692,93.313 63.831,92.899 63.471,92.148 C62.941,90.783 62.671,88.142 62.663,84.224 C62.740,82.455 62.717,81.301 62.595,80.764 C62.472,80.227 62.184,79.810 61.730,79.514 C60.713,78.871 60.609,78.247 61.419,77.639 C62.75,77.328 62.557,77.180 62.863,77.197 C63.170,77.214 63.461,77.344 63.737,77.584 C64.13,77.826 64.275,78.86 64.524,78.366 C64.773,78.646 64.940,78.847 65.28,78.967 C65.334,79.592 65.539,80.217 65.643,80.841 L65.771,85.583 C65.523,88.564 65.608,90.88 66.23,90.154 C67.243,88.769 68.869,86.67 70.901,82.47 C71.542,80.218 71.951,78.917 72.126,78.144 C72.301,77.373 72.534,76.945 72.824,76.863 C73.10,76.765 73.333,76.779 73.792,76.905 C74.251,77.32 74.494,77.127 74.522,77.190 C74.549,77.253 74.715,77.284 75.19,77.285 C75.322,77.285 75.481,77.327 75.494,77.408 C75.508,77.491 75.380,78.146 75.112,79.372 C74.843,80.600 74.742,81.258 74.807,81.349 ZM44.915,85.495 C44.488,85.768 44.176,85.921 43.979,85.954 C43.782,85.986 43.512,85.879 43.167,85.632 C42.823,85.385 42.617,85.166 42.552,84.974 C42.525,84.810 42.113,85.173 41.317,86.66 C40.520,86.958 39.999,87.576 39.753,87.922 C39.150,88.968 38.213,91.556 36.943,95.685 C36.811,96.112 36.693,96.622 36.589,97.213 C36.396,98.293 36.208,98.882 36.22,98.980 C35.836,99.79 35.518,99.97 35.70,99.36 C33.309,98.788 33.14,97.418 34.186,94.926 C34.339,94.428 34.585,93.162 34.923,91.130 C35.260,89.97 35.459,87.958 35.519,87.711 C35.492,87.142 35.393,86.753 35.224,86.544 C35.11,86.275 34.724,86.171 34.363,86.231 C34.2,86.291 33.770,86.312 33.666,86.295 C33.397,86.307 33.209,85.983 33.100,85.325 C33.62,84.690 33.352,84.101 33.971,83.559 C35.49,82.739 35.981,82.567 36.769,83.45 C37.244,83.270 37.638,84.319 37.949,86.194 C39.415,84.464 40.231,83.484 40.395,83.254 C41.785,81.875 42.882,81.119 43.687,80.985 C44.490,80.852 45.109,81.71 45.540,81.640 C46.306,82.595 46.428,83.538 45.908,84.468 C45.673,84.880 45.341,85.221 44.915,85.495 ZM24.983,98.302 C24.421,98.986 23.654,99.747 22.680,100.584 C21.542,101.652 20.341,102.340 19.77,102.651 C18.519,102.744 17.827,102.538 17.2,102.32 C15.541,100.957 14.815,99.828 14.821,98.644 L14.731,97.493 C14.539,97.356 14.477,97.231 14.543,97.119 C14.608,97.7 14.655,96.932 14.682,96.893 C14.879,96.860 14.919,96.694 14.802,96.392 C14.684,96.91 14.714,95.461 14.893,94.502 C15.71,93.543 15.344,92.645 15.711,91.807 C17.304,87.792 19.504,85.198 22.311,84.23 C22.968,83.711 23.455,83.547 23.772,83.527 C24.89,83.509 24.518,83.707 25.60,84.124 C25.869,84.328 26.485,84.632 26.906,85.35 C27.327,85.438 27.660,86.75 27.906,86.947 C28.593,89.468 28.187,92.306 26.687,95.460 C26.111,96.670 25.544,97.618 24.983,98.302 ZM25.185,88.386 C25.18,87.485 24.793,86.990 24.509,86.902 C23.502,86.529 22.460,86.955 21.382,88.180 C19.975,89.867 18.765,92.635 17.751,96.485 C17.335,98.244 17.575,99.387 18.471,99.914 C19.592,100.573 21.81,99.481 22.937,96.639 C24.80,94.795 24.858,92.773 25.270,90.576 C25.380,90.18 25.351,89.288 25.185,88.386 ZM13.790,78.87 C13.418,78.285 13.123,78.291 12.908,78.107 C12.692,77.924 12.543,77.585 12.461,77.92 L11.953,76.162 C11.871,75.669 11.918,75.239 12.93,74.872 C12.203,74.517 12.195,74.264 12.69,74.116 C11.943,73.968 11.724,73.970 11.413,74.123 C11.144,74.337 10.510,75.42 9.512,76.238 C8.513,77.434 8.30,78.130 8.63,78.328 C7.969,78.782 7.739,79.327 7.373,79.963 C6.918,80.883 6.717,81.499 6.769,81.811 C6.821,82.124 6.748,82.296 6.551,82.328 C6.496,82.811 6.353,83.375 6.123,84.21 C5.959,84.859 5.726,85.489 5.425,85.911 L5.474,85.902 C5.123,87.650 4.969,88.605 5.13,88.766 C5.57,88.929 5.554,88.879 6.507,88.620 C7.458,88.361 8.279,88.73 8.968,87.756 C9.657,87.439 10.344,87.308 11.28,87.363 C11.427,87.534 11.785,87.864 12.102,88.351 C12.419,88.839 12.528,89.192 12.430,89.411 C12.358,89.796 10.701,90.577 7.457,91.756 C5.328,92.549 4.275,93.11 4.297,93.142 C3.969,93.196 3.840,93.438 3.911,93.865 C3.982,94.292 3.974,94.699 3.886,95.85 C3.798,95.472 3.687,96.529 3.552,98.257 C3.416,99.986 3.382,101.47 3.448,101.442 C3.239,101.815 3.206,102.428 3.348,103.283 C3.211,103.678 3.181,104.105 3.257,104.565 L3.665,109.464 C3.730,110.467 3.666,111.102 3.475,111.370 C3.212,111.617 2.572,111.317 1.556,110.472 C1.244,110.220 1.42,109.966 0.949,109.711 C0.856,109.456 0.788,108.893 0.745,108.22 C0.827,107.502 0.795,106.798 0.647,105.910 C0.467,104.825 0.456,103.281 0.613,101.279 C0.769,99.276 0.837,97.804 0.816,96.861 C1.96,94.686 1.185,93.287 1.81,92.662 C0.978,92.37 1.133,91.556 1.549,91.216 C1.538,90.947 1.694,90.364 2.18,89.466 C2.759,85.390 3.337,82.777 3.753,81.627 C4.72,79.885 4.375,78.770 4.666,78.283 C4.803,77.686 5.290,76.760 6.128,75.506 C6.965,74.253 7.724,73.232 8.402,72.443 C9.513,71.618 10.429,71.144 11.152,71.25 C11.873,70.905 12.358,70.875 12.604,70.936 C12.981,70.975 13.457,71.200 14.31,71.611 C14.539,72.34 14.848,72.321 14.958,72.471 C15.67,72.623 15.160,72.928 15.236,73.388 C15.219,74.100 15.38,75.43 14.693,76.215 C14.348,77.387 14.47,78.12 13.790,78.87 Z"/>
</svg>
